<svg width="24" height="24" viewBox="0 0 24 24" fill="none" xmlns="http://www.w3.org/2000/svg">
<path d="M4 16L4 18C4 19.1046 5.07452 20 6.4 20L7.6 20C8.92548 20 10 19.1046 10 18L10 16C10 14.8954 8.92548 14 7.6 14L6.4 14C5.07452 14 4 14.8954 4 16Z" stroke="white" stroke-width="1.5" stroke-linecap="round" stroke-linejoin="round"/>
<path d="M14 16L14 18C14 19.1046 14.7675 20 15.7143 20L18.2857 20C19.2325 20 20 19.1046 20 18L20 16C20 14.8954 19.2325 14 18.2857 14L15.7143 14C14.7675 14 14 14.8954 14 16Z" stroke="white" stroke-width="1.5" stroke-linecap="round" stroke-linejoin="round"/>
<path d="M4 6L4 8C4 9.10457 4.89543 10 6 10L18 10C19.1046 10 20 9.10457 20 8L20 6C20 4.89543 19.1046 4 18 4L6 4C4.89543 4 4 4.89543 4 6Z" stroke="white" stroke-width="1.5" stroke-linecap="round" stroke-linejoin="round"/>
</svg>
