<svg width="278" height="271" viewBox="0 0 278 271" fill="none" xmlns="http://www.w3.org/2000/svg">
<g opacity="0.35" clip-path="url(#clip0)">
<path d="M216.779 82.1238C211.672 86.4852 204.088 85.877 199.713 80.7552C195.339 75.6335 195.925 68.0469 201.031 63.6855C206.138 59.3241 223.203 60.6927 223.203 60.6927C223.203 60.6927 221.886 77.7624 216.779 82.1238Z" fill="white"/>
<path d="M96.3391 232.49C90.3962 229.15 88.5751 221.848 91.64 216.13C94.9602 210.194 102.254 208.394 107.978 211.477C113.921 214.816 118.62 231.175 118.62 231.175C118.62 231.175 102.063 235.573 96.3391 232.49Z" fill="white"/>
<path d="M110.461 200.941C104.334 203.074 97.4432 199.658 95.0749 193.266C92.9252 187.13 96.3187 180.246 102.701 177.895C108.828 175.762 124.214 183.437 124.214 183.437C124.214 183.437 117.062 198.846 110.461 200.941Z" fill="white"/>
<path d="M116.462 77.8957C112.923 83.5755 105.629 85.3761 99.9419 81.8189C94.2542 78.2616 92.4331 70.9592 95.9721 65.2793C99.511 59.5994 116.031 55.6762 116.031 55.6762C116.031 55.6762 119.782 71.9597 116.462 77.8957Z" fill="white"/>
<path d="M82.7117 141.267C79.1728 146.947 71.879 148.747 66.1914 145.19C60.5037 141.633 58.6826 134.33 62.2216 128.651C65.7605 122.971 82.2809 119.047 82.2809 119.047C82.2809 119.047 86.2506 135.587 82.7117 141.267Z" fill="white"/>
<path d="M164.459 52.4035C160.92 58.0833 153.627 59.8839 147.939 56.3267C142.251 52.7695 140.43 45.467 143.969 39.7871C147.508 34.1072 164.028 30.184 164.028 30.184C164.028 30.184 167.998 46.7236 164.459 52.4035Z" fill="white"/>
<path d="M227.957 138.125C221.393 139.745 215.049 135.42 213.41 128.847C211.771 122.275 216.076 115.941 222.64 114.321C229.204 112.7 243.496 122.195 243.496 122.195C243.496 122.195 234.266 136.722 227.957 138.125Z" fill="white"/>
</g>
<defs>
<clipPath id="clip0">
<rect width="163" height="225.363" fill="white" transform="translate(171.367) rotate(49.5)"/>
</clipPath>
</defs>
</svg>
