<svg width="577" height="88" viewBox="0 0 577 88" fill="none" xmlns="http://www.w3.org/2000/svg">
<g opacity="0.6">
<path d="M576.9 65.1C576.9 56.8 562 17 562 17C562 17 547 56.8 547 65.1C547 73.4 553.7 80.1 562 80.1C570.3 80.1 576.9 73.3 576.9 65.1Z" fill="white" fill-opacity="0.6"/>
<path d="M567.3 88.8H556.6C556.3 88.8 556 88.5 556 88.2C556 87.9 556.3 87.6 556.6 87.6H567.3C567.6 87.6 567.9 87.9 567.9 88.2C567.9 88.6 567.7 88.8 567.3 88.8Z" fill="white" fill-opacity="0.6"/>
<path d="M562 88.8C561.7 88.8 561.4 88.5 561.4 88.2V39.5C561.4 39.2 561.7 38.9 562 38.9C562.3 38.9 562.6 39.2 562.6 39.5V88.3C562.6 88.6 562.3 88.8 562 88.8Z" fill="white"/>
<path d="M561.8 53.4C561.6 53.4 561.5 53.3 561.4 53.2L556.3 48.1C556.1 47.9 556.1 47.5 556.3 47.3C556.5 47.1 556.9 47.1 557.1 47.3L562.2 52.4C562.4 52.6 562.4 53 562.2 53.2C562.1 53.4 561.9 53.4 561.8 53.4Z" fill="white"/>
<path d="M561.8 58.1C561.6 58.1 561.5 58 561.4 57.9L556.3 52.8C556 52.6 556 52.2 556.2 52C556.4 51.8 556.8 51.8 557 52L562.1 57.1C562.3 57.3 562.3 57.7 562.1 57.9C562.1 58.1 561.9 58.1 561.8 58.1Z" fill="white"/>
<path d="M562.2 65.9C562 65.9 561.9 65.8 561.8 65.7C561.6 65.5 561.6 65.1 561.8 64.9L567.9 58.8C568.1 58.6 568.5 58.6 568.7 58.8C568.9 59 568.9 59.4 568.7 59.6L562.6 65.7C562.5 65.8 562.3 65.9 562.2 65.9Z" fill="white"/>
<path d="M562.2 70.6C562 70.6 561.9 70.5 561.8 70.4C561.6 70.2 561.6 69.8 561.8 69.6L567.9 63.5C568.1 63.3 568.5 63.3 568.7 63.5C568.9 63.7 568.9 64.1 568.7 64.3L562.6 70.4C562.5 70.5 562.3 70.6 562.2 70.6Z" fill="white"/>
</g>
<g opacity="0.6" clip-path="url(#clip0)">
<path d="M246.9 48.9C252.1 51.7 255.6 57.2 255.6 63.5C255.6 72.6 248.1 80 239 80C231.9 80 225.9 75.6 223.5 69.4L246.9 48.9Z" fill="white" fill-opacity="0.7"/>
<path d="M221.2 69.4C235.67 69.4 247.4 57.6699 247.4 43.2C247.4 28.7301 235.67 17 221.2 17C206.73 17 195 28.7301 195 43.2C195 57.6699 206.73 69.4 221.2 69.4Z" fill="white" fill-opacity="0.9"/>
<path d="M221.2 88.8C220.9 88.8 220.6 88.5 220.6 88.2V43.2C220.6 42.9 220.9 42.6 221.2 42.6C221.5 42.6 221.8 42.9 221.8 43.2V88.2C221.8 88.6 221.6 88.8 221.2 88.8Z" fill="white"/>
<path d="M226.6 88.8H215.9C215.6 88.8 215.3 88.5 215.3 88.2C215.3 87.9 215.6 87.6 215.9 87.6H226.6C226.9 87.6 227.2 87.9 227.2 88.2C227.2 88.6 226.9 88.8 226.6 88.8Z" fill="white" fill-opacity="0.6"/>
<path d="M221.2 57.4C221 57.4 220.9 57.3 220.8 57.2L213.5 49.9C213.3 49.7 213.3 49.3 213.5 49.1C213.7 48.9 214.1 48.9 214.3 49.1L221.6 56.5C221.8 56.7 221.8 57.1 221.6 57.3C221.6 57.4 221.4 57.4 221.2 57.4Z" fill="white"/>
<path d="M221.2 64.3C221 64.3 220.9 64.2 220.8 64.1L213.5 56.8C213.3 56.6 213.3 56.2 213.5 56C213.7 55.8 214.1 55.8 214.3 56L221.6 63.3C221.8 63.5 221.8 63.9 221.6 64.1C221.6 64.2 221.4 64.3 221.2 64.3Z" fill="white"/>
<path d="M239 88.8C238.7 88.8 238.4 88.5 238.4 88.2V67.6C238.4 67.3 238.7 67 239 67C239.3 67 239.6 67.3 239.6 67.6V88.2C239.6 88.6 239.3 88.8 239 88.8Z" fill="white"/>
<path d="M242.8 88.8H235.1C234.8 88.8 234.5 88.5 234.5 88.2C234.5 87.9 234.8 87.6 235.1 87.6H242.8C243.1 87.6 243.4 87.9 243.4 88.2C243.4 88.6 243.2 88.8 242.8 88.8Z" fill="white" fill-opacity="0.6"/>
<path d="M239 71.5C238.8 71.5 238.7 71.4 238.6 71.3C238.4 71.1 238.4 70.7 238.6 70.5L243.9 65.2C244.1 65 244.5 65 244.7 65.2C244.9 65.4 244.9 65.8 244.7 66L239.4 71.3C239.3 71.4 239.1 71.5 239 71.5Z" fill="white"/>
<path d="M239 76.4C238.8 76.4 238.7 76.3 238.6 76.2C238.4 76 238.4 75.6 238.6 75.4L243.9 70.1C244.1 69.9 244.5 69.9 244.7 70.1C244.9 70.3 244.9 70.7 244.7 70.9L239.4 76.2C239.3 76.4 239.1 76.4 239 76.4Z" fill="white"/>
</g>
<g opacity="0.6" clip-path="url(#clip1)">
<path d="M498.9 49.9C504.1 52.7 507.6 58.2 507.6 64.5C507.6 73.6 500.1 81 491 81C483.9 81 477.9 76.6 475.5 70.4L498.9 49.9Z" fill="white" fill-opacity="0.7"/>
<path d="M473.2 70.4C487.67 70.4 499.4 58.6699 499.4 44.2C499.4 29.7301 487.67 18 473.2 18C458.73 18 447 29.7301 447 44.2C447 58.6699 458.73 70.4 473.2 70.4Z" fill="white" fill-opacity="0.9"/>
<path d="M473.2 89.8C472.9 89.8 472.6 89.5 472.6 89.2V44.2C472.6 43.9 472.9 43.6 473.2 43.6C473.5 43.6 473.8 43.9 473.8 44.2V89.2C473.8 89.6 473.6 89.8 473.2 89.8Z" fill="white"/>
<path d="M473.2 58.4C473 58.4 472.9 58.3 472.8 58.2L465.5 50.9C465.3 50.7 465.3 50.3 465.5 50.1C465.7 49.9 466.1 49.9 466.3 50.1L473.6 57.5C473.8 57.7 473.8 58.1 473.6 58.3C473.6 58.4 473.4 58.4 473.2 58.4Z" fill="white"/>
<path d="M473.2 65.3C473 65.3 472.9 65.2 472.8 65.1L465.5 57.8C465.3 57.6 465.3 57.2 465.5 57C465.7 56.8 466.1 56.8 466.3 57L473.6 64.3C473.8 64.5 473.8 64.9 473.6 65.1C473.6 65.2 473.4 65.3 473.2 65.3Z" fill="white"/>
<path d="M491 89.8C490.7 89.8 490.4 89.5 490.4 89.2V68.6C490.4 68.3 490.7 68 491 68C491.3 68 491.6 68.3 491.6 68.6V89.2C491.6 89.6 491.3 89.8 491 89.8Z" fill="white"/>
<path d="M491 72.5C490.8 72.5 490.7 72.4 490.6 72.3C490.4 72.1 490.4 71.7 490.6 71.5L495.9 66.2C496.1 66 496.5 66 496.7 66.2C496.9 66.4 496.9 66.8 496.7 67L491.4 72.3C491.3 72.4 491.1 72.5 491 72.5Z" fill="white"/>
<path d="M491 77.4C490.8 77.4 490.7 77.3 490.6 77.2C490.4 77 490.4 76.6 490.6 76.4L495.9 71.1C496.1 70.9 496.5 70.9 496.7 71.1C496.9 71.3 496.9 71.7 496.7 71.9L491.4 77.2C491.3 77.4 491.1 77.4 491 77.4Z" fill="white"/>
</g>
<g opacity="0.6">
<path d="M22 0L0 76.5746H44L22 0Z" fill="white" fill-opacity="0.9"/>
<path d="M22.0002 90C21.6273 90 21.2544 89.6271 21.2544 89.2542V31.5746C21.2544 31.2017 21.6273 30.8287 22.0002 30.8287C22.373 30.8287 22.7459 31.2017 22.7459 31.5746V89.1298C22.7459 89.6271 22.373 90 22.0002 90Z" fill="white"/>
<path d="M22.0003 53.453C21.876 53.453 21.6274 53.453 21.5031 53.3287C21.1302 53.0801 21.1302 52.5829 21.3788 52.3342L26.5992 45.8702C26.8477 45.4972 27.3449 45.4972 27.5935 45.7458C27.9664 45.9945 27.9664 46.4917 27.7178 46.7403L22.4975 53.2044C22.3732 53.453 22.2489 53.453 22.0003 53.453Z" fill="white"/>
<path d="M22.0003 57.6795C21.876 57.6795 21.6274 57.6795 21.5031 57.5552C21.1302 57.3066 21.1302 56.8094 21.3788 56.5607L26.5992 50.0967C26.8477 49.7237 27.3449 49.7237 27.5935 49.9723C27.9664 50.221 27.9664 50.7182 27.7178 50.9668L22.4975 57.4309C22.3732 57.6795 22.2489 57.6795 22.0003 57.6795Z" fill="white"/>
<path d="M22.0003 66.2569C21.876 66.2569 21.6274 66.2569 21.5031 66.1326C21.1302 65.884 21.1302 65.3868 21.3788 65.1381L26.5992 58.674C26.8477 58.3011 27.3449 58.3011 27.5935 58.5497C27.9664 58.7984 27.9664 59.2956 27.7178 59.5442L22.4975 66.0083C22.3732 66.1326 22.2489 66.2569 22.0003 66.2569Z" fill="white"/>
<path d="M22.0003 70.4834C21.876 70.4834 21.6274 70.4834 21.5031 70.3591C21.1302 70.1105 21.1302 69.6133 21.3788 69.3646L26.5992 62.9005C26.8477 62.5276 27.3449 62.5276 27.5935 62.7762C27.9664 63.0249 27.9664 63.5221 27.7178 63.7707L22.4975 70.2348C22.3732 70.3591 22.2489 70.4834 22.0003 70.4834Z" fill="white"/>
<path d="M22.0004 53.453C21.7518 53.453 21.6275 53.3287 21.3789 53.2044L16.1586 46.7403C15.91 46.3674 15.91 45.9945 16.2829 45.7458C16.6558 45.4972 17.0287 45.4972 17.2772 45.8702L22.4976 52.3342C22.7462 52.7072 22.7462 53.0801 22.3733 53.3287C22.3733 53.453 22.1247 53.453 22.0004 53.453Z" fill="white"/>
<path d="M22.0004 57.6795C21.7518 57.6795 21.6275 57.5552 21.3789 57.4309L16.1586 51.0911C15.91 50.7182 15.91 50.3453 16.2829 50.0967C16.6558 49.8481 17.0287 49.8481 17.2772 50.221L22.4976 56.6851C22.7462 57.058 22.7462 57.4309 22.3733 57.6795C22.3733 57.6795 22.1247 57.6795 22.0004 57.6795Z" fill="white"/>
<path d="M22.0004 66.2569C21.7518 66.2569 21.6275 66.1326 21.3789 66.0083L16.1586 59.5442C15.91 59.1713 15.91 58.7984 16.2829 58.5497C16.6558 58.3011 17.0287 58.3011 17.2772 58.674L22.4976 65.1381C22.7462 65.5111 22.7462 65.884 22.3733 66.1326C22.3733 66.1326 22.1247 66.2569 22.0004 66.2569Z" fill="white"/>
<path d="M22.0004 70.4834C21.7518 70.4834 21.6275 70.3591 21.3789 70.2348L16.1586 63.7707C15.91 63.3978 15.91 63.0249 16.2829 62.7762C16.6558 62.5276 17.0287 62.5276 17.2772 62.9005L22.4976 69.3646C22.7462 69.7376 22.7462 70.1105 22.3733 70.3591C22.3733 70.4834 22.1247 70.4834 22.0004 70.4834Z" fill="white"/>
</g>
<g opacity="0.6">
<path d="M416.493 50.7604C415.116 46.5599 411.201 43.8802 406.997 43.8802C405.692 39.8969 401.922 37 397.5 37C393.079 37 389.309 39.8969 388.004 43.8802C383.8 43.8802 379.885 46.5599 378.508 50.7604C377.131 54.961 378.725 59.4513 382.132 61.9136C380.828 65.8969 382.132 70.4596 385.757 73.0668C389.381 75.6741 394.093 75.5292 397.5 73.0668C400.908 75.5292 405.619 75.6741 409.244 73.0668C412.868 70.4596 414.173 65.8969 412.868 61.9136C416.276 59.4513 417.87 55.0334 416.493 50.7604Z" fill="white" fill-opacity="0.9"/>
<path d="M397.5 89C397.283 89 397.065 88.7827 397.065 88.5655V55.9749C397.065 55.7577 397.283 55.5404 397.5 55.5404C397.718 55.5404 397.935 55.7577 397.935 55.9749V88.5655C397.935 88.8552 397.718 89 397.5 89Z" fill="white"/>
<path d="M397.5 66.2591C397.355 66.2591 397.283 66.1867 397.21 66.1142L391.918 60.8273C391.773 60.6825 391.773 60.3928 391.918 60.2479C392.063 60.1031 392.353 60.1031 392.498 60.2479L397.79 65.5349C397.935 65.6797 397.935 65.9694 397.79 66.1142C397.718 66.2591 397.573 66.2591 397.5 66.2591Z" fill="white"/>
<path d="M397.5 66.2591C397.355 66.2591 397.283 66.1867 397.21 66.1142C397.065 65.9694 397.065 65.6797 397.21 65.5349L402.502 60.2479C402.647 60.1031 402.937 60.1031 403.082 60.2479C403.227 60.3928 403.227 60.6825 403.082 60.8273L397.79 66.1142C397.718 66.2591 397.573 66.2591 397.5 66.2591Z" fill="white"/>
</g>
<g opacity="0.6">
<path d="M170.493 50.7604C169.116 46.5599 165.201 43.8802 160.997 43.8802C159.692 39.8969 155.922 37 151.5 37C147.079 37 143.309 39.8969 142.004 43.8802C137.8 43.8802 133.885 46.5599 132.508 50.7604C131.131 54.961 132.725 59.4513 136.132 61.9136C134.828 65.8969 136.132 70.4596 139.757 73.0668C143.381 75.6741 148.093 75.5292 151.5 73.0668C154.908 75.5292 159.619 75.6741 163.244 73.0668C166.868 70.4596 168.173 65.8969 166.868 61.9136C170.276 59.4513 171.87 55.0334 170.493 50.7604Z" fill="white" fill-opacity="0.9"/>
<path d="M151.5 89C151.283 89 151.065 88.7827 151.065 88.5655V55.9749C151.065 55.7577 151.283 55.5404 151.5 55.5404C151.718 55.5404 151.935 55.7577 151.935 55.9749V88.5655C151.935 88.8552 151.718 89 151.5 89Z" fill="white"/>
<path d="M151.5 66.2591C151.355 66.2591 151.283 66.1867 151.21 66.1142L145.918 60.8273C145.773 60.6825 145.773 60.3928 145.918 60.2479C146.063 60.1031 146.353 60.1031 146.498 60.2479L151.79 65.5349C151.935 65.6797 151.935 65.9694 151.79 66.1142C151.718 66.2591 151.573 66.2591 151.5 66.2591Z" fill="white"/>
<path d="M151.5 66.2591C151.355 66.2591 151.283 66.1867 151.21 66.1142C151.065 65.9694 151.065 65.6797 151.21 65.5349L156.502 60.2479C156.647 60.1031 156.937 60.1031 157.082 60.2479C157.227 60.3928 157.227 60.6825 157.082 60.8273L151.79 66.1142C151.718 66.2591 151.573 66.2591 151.5 66.2591Z" fill="white"/>
</g>
<g opacity="0.6">
<path d="M326.106 89H316.516C316.249 89 315.983 88.7326 315.983 88.4652C315.983 88.1978 316.249 87.9304 316.516 87.9304H326.017C326.283 87.9304 326.55 88.1978 326.55 88.4652C326.638 88.8217 326.372 89 326.106 89Z" fill="white"/>
<path d="M321.311 89C321.044 89 320.778 88.7326 320.778 88.4652V75.4513C320.778 75.1839 321.044 74.9164 321.311 74.9164C321.577 74.9164 321.843 75.1839 321.843 75.4513V88.4652C321.843 88.8217 321.577 89 321.311 89Z" fill="white"/>
<path d="M321.311 75.4513C332.737 75.4513 342 64.1574 342 50.2256C342 36.2939 332.737 25 321.311 25C309.884 25 300.622 36.2939 300.622 50.2256C300.622 64.1574 309.884 75.4513 321.311 75.4513Z" fill="white" fill-opacity="0.9"/>
<path d="M309.323 79.3733C314.473 79.3733 318.647 75.1829 318.647 70.0139C318.647 64.8449 314.473 60.6546 309.323 60.6546C304.174 60.6546 300 64.8449 300 70.0139C300 75.1829 304.174 79.3733 309.323 79.3733Z" fill="white" fill-opacity="0.7"/>
<path d="M329.036 35.6964C327.526 35.6964 326.283 34.4485 326.283 32.9332C326.283 31.4178 327.526 30.1699 329.036 30.1699C330.545 30.1699 331.788 31.4178 331.788 32.9332C331.788 34.4485 330.545 35.6964 329.036 35.6964ZM329.036 31.1504C328.059 31.1504 327.349 31.9527 327.349 32.844C327.349 33.7354 328.148 34.5376 329.036 34.5376C330.013 34.5376 330.723 33.7354 330.723 32.844C330.723 31.9527 329.924 31.1504 329.036 31.1504Z" fill="white"/>
<path d="M312.076 40.688C310.566 40.688 309.323 39.4401 309.323 37.9248C309.323 36.4095 310.566 35.1616 312.076 35.1616C313.585 35.1616 314.829 36.4095 314.829 37.9248C314.829 39.4401 313.585 40.688 312.076 40.688ZM312.076 36.2312C311.099 36.2312 310.389 37.0334 310.389 37.9248C310.389 38.8162 311.188 39.6184 312.076 39.6184C312.964 39.6184 313.763 38.8162 313.763 37.9248C313.763 37.0334 313.053 36.2312 312.076 36.2312Z" fill="white"/>
<path d="M317.226 57.9805C315.717 57.9805 314.474 56.7326 314.474 55.2173C314.474 53.702 315.717 52.454 317.226 52.454C318.736 52.454 319.979 53.702 319.979 55.2173C320.068 56.7326 318.825 57.9805 317.226 57.9805ZM317.226 53.4345C316.25 53.4345 315.539 54.2368 315.539 55.1281C315.539 56.0195 316.338 56.8217 317.226 56.8217C318.203 56.8217 318.913 56.0195 318.913 55.1281C318.913 54.2368 318.203 53.4345 317.226 53.4345Z" fill="white"/>
<path d="M312.786 69.39C311.277 69.39 310.034 68.142 310.034 66.6267C310.034 65.1114 311.277 63.8635 312.786 63.8635C314.296 63.8635 315.539 65.1114 315.539 66.6267C315.539 68.142 314.296 69.39 312.786 69.39ZM312.786 64.844C311.81 64.844 311.099 65.6462 311.099 66.5376C311.099 67.429 311.898 68.2312 312.786 68.2312C313.674 68.2312 314.473 67.429 314.473 66.5376C314.473 65.6462 313.674 64.844 312.786 64.844Z" fill="white"/>
<path d="M306.393 76.3426C304.884 76.3426 303.641 75.0947 303.641 73.5794C303.641 72.0641 304.884 70.8162 306.393 70.8162C307.903 70.8162 309.146 72.0641 309.146 73.5794C309.146 75.0947 307.903 76.3426 306.393 76.3426ZM306.393 71.7967C305.417 71.7967 304.706 72.5989 304.706 73.4903C304.706 74.3816 305.505 75.1838 306.393 75.1838C307.281 75.1838 308.08 74.3816 308.08 73.4903C308.08 72.5989 307.281 71.7967 306.393 71.7967Z" fill="white"/>
<path d="M328.325 70.727C326.816 70.727 325.573 69.4791 325.573 67.9638C325.573 66.4485 326.816 65.2006 328.325 65.2006C329.835 65.2006 331.078 66.4485 331.078 67.9638C331.078 69.4791 329.835 70.727 328.325 70.727ZM328.325 66.2702C327.349 66.2702 326.638 67.0724 326.638 67.9638C326.638 68.8552 327.437 69.6574 328.325 69.6574C329.302 69.6574 330.012 68.8552 330.012 67.9638C330.012 67.0724 329.302 66.2702 328.325 66.2702Z" fill="white"/>
<path d="M325.306 46.3927C323.797 46.3927 322.554 45.1448 322.554 43.6295C322.554 42.1142 323.797 40.8663 325.306 40.8663C326.816 40.8663 328.059 42.1142 328.059 43.6295C328.059 45.1448 326.816 46.3927 325.306 46.3927ZM325.306 41.9359C324.33 41.9359 323.619 42.7381 323.619 43.6295C323.619 44.5209 324.418 45.3231 325.306 45.3231C326.194 45.3231 326.993 44.5209 326.993 43.6295C326.993 42.7381 326.283 41.9359 325.306 41.9359Z" fill="white"/>
<path d="M333.209 57.1783C331.7 57.1783 330.457 55.9303 330.457 54.415C330.457 52.8997 331.7 51.6518 333.209 51.6518C334.719 51.6518 335.962 52.8997 335.962 54.415C335.962 55.9303 334.719 57.1783 333.209 57.1783ZM333.209 52.7214C332.232 52.7214 331.522 53.5237 331.522 54.415C331.522 55.3955 332.321 56.1086 333.209 56.1086C334.097 56.1086 334.896 55.3064 334.896 54.415C334.896 53.4345 334.097 52.7214 333.209 52.7214Z" fill="white"/>
<path d="M305.594 55.6629C304.084 55.6629 302.841 54.415 302.841 52.8997C302.841 51.3844 304.084 50.1365 305.594 50.1365C307.103 50.1365 308.347 51.3844 308.347 52.8997C308.347 54.415 307.192 55.6629 305.594 55.6629ZM305.594 51.2061C304.617 51.2061 303.907 52.0083 303.907 52.8997C303.907 53.8802 304.706 54.5933 305.594 54.5933C306.482 54.5933 307.281 53.7911 307.281 52.8997C307.37 51.9192 306.571 51.2061 305.594 51.2061Z" fill="white"/>
</g>
<g opacity="0.6">
<path d="M95.1055 89H85.5157C85.2493 89 84.9829 88.7326 84.9829 88.4652C84.9829 88.1978 85.2493 87.9304 85.5157 87.9304H95.0167C95.2831 87.9304 95.5495 88.1978 95.5495 88.4652C95.6383 88.8217 95.3719 89 95.1055 89Z" fill="white"/>
<path d="M90.3106 89C90.0442 89 89.7778 88.7326 89.7778 88.4652V75.4513C89.7778 75.1839 90.0442 74.9164 90.3106 74.9164C90.577 74.9164 90.8434 75.1839 90.8434 75.4513V88.4652C90.8434 88.8217 90.577 89 90.3106 89Z" fill="white"/>
<path d="M90.3108 75.4513C101.737 75.4513 111 64.1574 111 50.2256C111 36.2939 101.737 25 90.3108 25C78.8845 25 69.6216 36.2939 69.6216 50.2256C69.6216 64.1574 78.8845 75.4513 90.3108 75.4513Z" fill="white" fill-opacity="0.9"/>
<path d="M78.3235 79.3733C83.4727 79.3733 87.6469 75.1829 87.6469 70.0139C87.6469 64.8449 83.4727 60.6546 78.3235 60.6546C73.1743 60.6546 69 64.8449 69 70.0139C69 75.1829 73.1743 79.3733 78.3235 79.3733Z" fill="white" fill-opacity="0.7"/>
<path d="M98.0358 35.6964C96.5263 35.6964 95.2832 34.4485 95.2832 32.9332C95.2832 31.4178 96.5263 30.1699 98.0358 30.1699C99.5454 30.1699 100.788 31.4178 100.788 32.9332C100.788 34.4485 99.5454 35.6964 98.0358 35.6964ZM98.0358 31.1504C97.0591 31.1504 96.3487 31.9527 96.3487 32.844C96.3487 33.7354 97.1479 34.5376 98.0358 34.5376C99.0126 34.5376 99.7229 33.7354 99.7229 32.844C99.7229 31.9527 98.9238 31.1504 98.0358 31.1504Z" fill="white"/>
<path d="M81.0759 40.688C79.5664 40.688 78.3232 39.4401 78.3232 37.9248C78.3232 36.4095 79.5664 35.1616 81.0759 35.1616C82.5854 35.1616 83.8285 36.4095 83.8285 37.9248C83.8285 39.4401 82.5854 40.688 81.0759 40.688ZM81.0759 36.2312C80.0991 36.2312 79.3888 37.0334 79.3888 37.9248C79.3888 38.8162 80.1879 39.6184 81.0759 39.6184C81.9638 39.6184 82.763 38.8162 82.763 37.9248C82.763 37.0334 82.0526 36.2312 81.0759 36.2312Z" fill="white"/>
<path d="M86.2263 57.9805C84.7168 57.9805 83.4736 56.7326 83.4736 55.2173C83.4736 53.702 84.7168 52.454 86.2263 52.454C87.7358 52.454 88.9789 53.702 88.9789 55.2173C89.0677 56.7326 87.8246 57.9805 86.2263 57.9805ZM86.2263 53.4345C85.2495 53.4345 84.5392 54.2368 84.5392 55.1281C84.5392 56.0195 85.3383 56.8217 86.2263 56.8217C87.203 56.8217 87.9134 56.0195 87.9134 55.1281C87.9134 54.2368 87.203 53.4345 86.2263 53.4345Z" fill="white"/>
<path d="M81.5 69C80.129 69 79 67.871 79 66.5C79 65.129 80.129 64 81.5 64C82.871 64 84 65.129 84 66.5C84 67.871 82.871 69 81.5 69ZM81.5 64.8871C80.6129 64.8871 79.9677 65.6129 79.9677 66.4194C79.9677 67.2258 80.6935 67.9516 81.5 67.9516C82.3065 67.9516 83.0323 67.2258 83.0323 66.4194C83.0323 65.6129 82.3065 64.8871 81.5 64.8871Z" fill="white"/>
<path d="M75.5 76C74.129 76 73 74.6452 73 73C73 71.3548 74.129 70 75.5 70C76.871 70 78 71.3548 78 73C78 74.6452 76.871 76 75.5 76ZM75.5 71.0645C74.6129 71.0645 73.9677 71.9355 73.9677 72.9032C73.9677 73.871 74.6935 74.7419 75.5 74.7419C76.3065 74.7419 77.0323 73.871 77.0323 72.9032C77.0323 71.9355 76.3065 71.0645 75.5 71.0645Z" fill="white"/>
<path d="M97.3254 70.727C95.8159 70.727 94.5728 69.4791 94.5728 67.9638C94.5728 66.4485 95.8159 65.2006 97.3254 65.2006C98.8349 65.2006 100.078 66.4485 100.078 67.9638C100.078 69.4791 98.8349 70.727 97.3254 70.727ZM97.3254 66.2702C96.3487 66.2702 95.6383 67.0724 95.6383 67.9638C95.6383 68.8552 96.4374 69.6574 97.3254 69.6574C98.3021 69.6574 99.0125 68.8552 99.0125 67.9638C99.0125 67.0724 98.3021 66.2702 97.3254 66.2702Z" fill="white"/>
<path d="M94.3064 46.3927C92.7968 46.3927 91.5537 45.1448 91.5537 43.6295C91.5537 42.1142 92.7968 40.8663 94.3064 40.8663C95.8159 40.8663 97.059 42.1142 97.059 43.6295C97.059 45.1448 95.8159 46.3927 94.3064 46.3927ZM94.3064 41.9359C93.3296 41.9359 92.6193 42.7381 92.6193 43.6295C92.6193 44.5209 93.4184 45.3231 94.3064 45.3231C95.1943 45.3231 95.9935 44.5209 95.9935 43.6295C95.9935 42.7381 95.2831 41.9359 94.3064 41.9359Z" fill="white"/>
<path d="M102.209 57.1783C100.7 57.1783 99.4565 55.9303 99.4565 54.415C99.4565 52.8997 100.7 51.6518 102.209 51.6518C103.719 51.6518 104.962 52.8997 104.962 54.415C104.962 55.9303 103.719 57.1783 102.209 57.1783ZM102.209 52.7214C101.232 52.7214 100.522 53.5237 100.522 54.415C100.522 55.3955 101.321 56.1086 102.209 56.1086C103.097 56.1086 103.896 55.3064 103.896 54.415C103.896 53.4345 103.097 52.7214 102.209 52.7214Z" fill="white"/>
<path d="M74.5 56C73.129 56 72 54.871 72 53.5C72 52.129 73.129 51 74.5 51C75.871 51 77 52.129 77 53.5C77 54.871 75.9516 56 74.5 56ZM74.5 51.9677C73.6129 51.9677 72.9677 52.6935 72.9677 53.5C72.9677 54.3871 73.6935 55.0323 74.5 55.0323C75.3065 55.0323 76.0323 54.3064 76.0323 53.5C76.1129 52.6129 75.3871 51.9677 74.5 51.9677Z" fill="white"/>
</g>
<defs>
<clipPath id="clip0">
<rect width="60.6" height="71.8" fill="white" transform="translate(195 17)"/>
</clipPath>
<clipPath id="clip1">
<rect width="60.6" height="71.8" fill="white" transform="translate(447 18)"/>
</clipPath>
</defs>
</svg>
