<svg width="60" height="60" viewBox="0 0 60 60" fill="none" xmlns="http://www.w3.org/2000/svg">
<path fill-rule="evenodd" clip-rule="evenodd" d="M30 0C13.4314 0 0 13.4314 0 30C0 46.5686 13.4314 60 30 60C46.5686 60 60 46.5686 60 30C60 13.4314 46.5686 0 30 0Z" fill="#00C4CC"/>
<path fill-rule="evenodd" clip-rule="evenodd" d="M50.0572 30.8572C49.7144 30.8572 49.1144 30.7715 49.1144 30.4286C49.1144 30.0858 49.8858 30.2572 49.8001 29.4858C49.7144 28.9715 49.2001 28.8001 48.6858 28.8001C46.9715 28.8001 45.8572 31.0286 46.1144 32.8286C46.2001 33.5144 46.543 34.2858 47.2287 34.2858C47.743 34.2858 48.5144 33.5144 48.8572 32.4001C49.0287 31.7144 49.7144 31.1144 50.3144 31.1144C50.5715 31.1144 50.743 31.2001 50.8287 31.5429C50.8287 31.7144 50.8287 32.0572 50.4858 33.1715C50.0572 33.9429 50.0572 34.3715 50.143 34.7144C50.2287 35.4001 50.5715 35.9144 50.9144 36.1715C51.0001 36.2572 51.0858 36.4286 51.0858 36.4286C51.0858 36.6001 51.0001 36.7715 50.743 36.7715C50.6572 36.7715 50.5715 36.7715 50.4858 36.6858C49.2001 36.1715 48.6858 35.3144 48.5144 34.4572C48.0001 35.0572 47.4001 35.4001 46.7144 35.4001C45.6001 35.4001 44.4858 34.3715 44.3144 33.0858C44.2544 32.5698 44.3315 32.0144 44.5004 31.4632C43.9921 31.7889 43.4461 31.9715 42.9438 31.9715H42.5152C41.401 33.6001 40.201 34.7144 39.3438 35.2286C39.001 35.4001 38.6581 35.4858 38.401 35.4858C38.2295 35.4858 37.9724 35.4001 37.8867 35.2286C37.651 34.8481 37.4975 34.2464 37.4041 33.5598C36.2015 34.8772 34.5412 35.5715 33.7732 35.5715C32.9161 35.5715 32.4018 35.0572 32.3161 34.2001V33.2572C32.5732 31.3715 33.259 30.2572 33.259 29.9144C33.259 29.8286 33.1732 29.7429 33.0875 29.7429C32.4875 29.7429 30.5161 31.8001 30.1732 33.1715L29.9161 34.2858C29.7447 35.0572 28.9732 35.5715 28.459 35.5715C28.2018 35.5715 28.0304 35.4858 27.9447 35.1429V34.8001L28.0612 34.2172C26.9744 34.9921 25.8841 35.4858 25.3741 35.4858C24.6027 35.4858 24.1741 35.0572 24.0884 34.4572C23.5741 35.1429 22.9741 35.4858 22.2027 35.4858C21.3232 35.4858 20.4627 34.8858 20.047 34.0055C19.4384 34.6912 18.7415 35.3855 17.9187 35.9152C16.7187 36.6866 15.3472 37.2866 13.7187 37.2866C12.2615 37.2866 10.9758 36.5152 10.2901 35.8295C9.26153 34.8866 8.66153 33.4295 8.57581 32.0581C8.06153 27.8581 10.633 22.4581 14.5758 20.0581C15.5187 19.5438 16.4615 19.2009 17.4044 19.2009C19.2901 19.2009 20.7472 20.5724 20.9187 22.2009C21.0901 23.6581 20.4901 24.9438 18.8615 25.7152C18.0044 26.1438 17.6615 26.1438 17.4901 25.8866C17.4044 25.7152 17.4901 25.5438 17.6615 25.3724C19.2044 24.0866 19.2044 23.0581 19.033 21.6009C18.9472 20.6581 18.2615 20.0581 17.5758 20.0581C14.5758 20.0581 10.2901 26.7438 10.8901 31.6295C11.1472 33.5152 12.2615 35.7438 14.6615 35.7438C15.433 35.7438 16.2901 35.4866 17.0615 35.1438C18.313 34.4838 19.0587 33.9695 19.8044 33.1466C19.6218 30.9326 21.565 28.0295 24.433 28.0295C25.7187 28.0295 26.7472 28.5438 26.833 29.4866C27.0044 30.7724 25.8901 30.9438 25.5472 30.9438C25.2044 30.9438 24.6044 30.8581 24.6044 30.5152C24.5187 30.1724 25.3758 30.3438 25.2901 29.5724C25.2044 29.0581 24.6901 28.8866 24.1758 28.8866C22.3758 28.8866 21.3472 31.3724 21.6044 32.9152C21.6901 33.6009 22.033 34.2866 22.7187 34.2866C23.233 34.2866 24.0044 33.5152 24.2615 32.4009C24.433 31.6295 25.1187 31.1152 25.7187 31.1152C25.9758 31.1152 26.1472 31.2009 26.233 31.5438V31.8866C26.1472 32.2295 25.8901 33.2581 25.9758 33.5152C25.9758 33.6866 26.0615 33.9438 26.4044 33.9438C26.6315 33.9438 27.493 33.4929 28.345 32.7952C28.6364 31.3209 28.9767 29.5509 28.9767 29.4026C29.0624 28.8026 29.3195 28.2026 30.5195 28.2026C30.7767 28.2026 30.9481 28.2884 31.0338 28.6312V28.9741L30.691 30.5169C31.8052 29.0598 33.4338 28.0312 34.4624 28.0312C34.891 28.0312 35.2338 28.2884 35.2338 28.7169C35.2338 28.9741 35.2338 29.4026 35.0624 29.8312C34.7195 30.7741 34.291 32.2312 34.0338 33.5169C34.0338 33.8598 34.1195 34.2026 34.5481 34.2026C34.9767 34.2026 36.2624 33.6884 37.291 32.3169L37.3081 32.3066C37.303 32.1386 37.291 31.9724 37.291 31.8035C37.291 30.7749 37.3767 29.9178 37.5481 29.3178C37.7195 28.6321 38.5767 28.0321 39.091 28.0321C39.3481 28.0321 39.6052 28.2035 39.6052 28.4606C39.6052 28.5464 39.6052 28.7178 39.5195 28.8035C39.1767 29.9178 38.9195 30.9464 38.9195 31.9749C38.9195 32.5749 39.0052 33.4321 39.1767 33.9464C39.1767 34.0321 39.2624 34.1178 39.3481 34.1178C39.5195 34.1178 40.7195 33.0035 41.5767 31.5464C40.8052 31.0321 40.3767 30.1749 40.3767 29.1464C40.3767 27.3464 41.491 26.4035 42.5195 26.4035C43.3767 26.4035 44.0624 27.0035 44.0624 28.2035C44.0624 28.9749 43.8052 29.8321 43.3767 30.6035H43.6338C44.3195 30.6035 44.7481 30.3464 45.091 30.0035C45.1702 29.8737 45.288 29.7719 45.4278 29.7121C46.2644 28.6492 47.5021 27.8606 48.9507 27.8606C50.1507 27.8606 51.2624 28.3749 51.3507 29.3178C51.5221 30.6035 50.4061 30.8606 50.0624 30.8606L50.0572 30.8572Z" fill="white"/>
<path fill-rule="evenodd" clip-rule="evenodd" d="M41.8285 27.4285C41.5713 27.4285 41.3999 27.857 41.3999 28.2856C41.3999 28.9713 41.7428 29.7428 42.1713 30.1713C42.3428 29.657 42.4285 29.2285 42.4285 28.7142C42.4285 27.857 42.0856 27.4285 41.8285 27.4285Z" fill="#00C4CC"/>
</svg>
