<svg width="24" height="24" viewBox="0 0 24 24" fill="none" xmlns="http://www.w3.org/2000/svg">
<path d="M17 21H7C6.46957 21 5.96086 20.7893 5.58579 20.4142C5.21071 20.0391 5 19.5304 5 19V5C5 4.46957 5.21071 3.96086 5.58579 3.58579C5.96086 3.21071 6.46957 3 7 3H14L19 8V19C19 19.5304 18.7893 20.0391 18.4142 20.4142C18.0391 20.7893 17.5304 21 17 21Z" stroke="#8F92A1" stroke-width="1.5" stroke-linecap="round" stroke-linejoin="round"/>
<path d="M14.35 10C14.2505 9.71762 14.0687 9.47148 13.8281 9.29327C13.5875 9.11505 13.2991 9.01292 13 9H11C10.6022 9 10.2206 9.15804 9.93934 9.43934C9.65804 9.72064 9.5 10.1022 9.5 10.5C9.5 10.8978 9.65804 11.2794 9.93934 11.5607C10.2206 11.842 10.6022 12 11 12H13C13.3978 12 13.7794 12.158 14.0607 12.4393C14.342 12.7206 14.5 13.1022 14.5 13.5C14.5 13.8978 14.342 14.2794 14.0607 14.5607C13.7794 14.842 13.3978 15 13 15H11C10.7009 14.9871 10.4125 14.8849 10.1719 14.7067C9.93128 14.5285 9.74952 14.2824 9.65 14" stroke="#8F92A1" stroke-linecap="round" stroke-linejoin="round"/>
<path d="M12 15V16.5M12 7.5V9V7.5Z" stroke="#8F92A1" stroke-linecap="round" stroke-linejoin="round"/>
</svg>
