<svg width="24" height="25" viewBox="0 0 24 25" fill="none" xmlns="http://www.w3.org/2000/svg">
<path d="M4.42283 13.5652V13.4902H4.34783H3.50991C2.72117 13.4902 2.075 12.8241 2.075 12V3.13043C2.075 2.30633 2.72117 1.64022 3.50991 1.64022H4.34783H4.42283V1.56522V0.521739C4.42283 0.275161 4.62299 0.075 4.86957 0.075C5.11614 0.075 5.3163 0.27516 5.3163 0.521739V1.56522V1.64022H5.3913H6.2287C7.01798 1.64022 7.66413 2.30634 7.66413 3.13043V12C7.66413 12.8241 7.01748 13.4902 6.2287 13.4902H5.3913H5.3163V13.5652V14.6087C5.3163 14.8553 5.11614 15.0554 4.86957 15.0554C4.62299 15.0554 4.42283 14.8553 4.42283 14.6087V13.5652ZM3.50991 2.5337C3.20357 2.5337 2.96848 2.80968 2.96848 3.13043V12C2.96848 12.3208 3.20357 12.5967 3.50991 12.5967H6.2287C6.53551 12.5967 6.77065 12.3208 6.77065 12V3.13043C6.77065 2.80957 6.53493 2.5337 6.2287 2.5337H3.50991Z" fill="#8F92A1" stroke="#8F92A1" stroke-width="0.15"/>
<path d="M11.0751 22.4348H11.913V23.4783C11.913 23.7663 12.1462 24.0001 12.4348 24.0001C12.7233 24.0001 12.9565 23.7663 12.9565 23.4783V22.4348H13.7939C14.6266 22.4348 15.3043 21.7326 15.3043 20.8696V12.0001C15.3043 11.1371 14.6266 10.4348 13.7939 10.4348H12.9565V9.39137C12.9565 9.10337 12.7233 8.86963 12.4348 8.86963C12.1462 8.86963 11.913 9.10337 11.913 9.39137V10.4348H11.0751C10.2424 10.4348 9.56519 11.1371 9.56519 12.0001V20.8696C9.56519 21.7326 10.2424 22.4348 11.0751 22.4348ZM10.6087 12.0001C10.6087 11.7126 10.8179 11.4783 11.0751 11.4783H13.7939C14.0516 11.4783 14.2608 11.7126 14.2608 12.0001V20.8696C14.2608 21.1571 14.0516 21.3914 13.7939 21.3914H11.0751C10.8179 21.3914 10.6087 21.1571 10.6087 20.8696V12.0001Z" fill="#8F92A1" stroke="#8F92A1" stroke-width="0.15"/>
<path d="M19.5532 14.6087V14.5337H19.4782H18.6403C17.852 14.5337 17.2054 13.8675 17.2054 13.0435V4.17389C17.2054 3.34978 17.8515 2.68367 18.6403 2.68367H19.4782H19.5532V2.60867V1.5652C19.5532 1.31857 19.7529 1.11846 19.9999 1.11846C20.247 1.11846 20.4467 1.31857 20.4467 1.5652V2.60867V2.68367H20.5217H21.3591C22.1478 2.68367 22.7945 3.34982 22.7945 4.17389V13.0435C22.7945 13.8675 22.1478 14.5337 21.3591 14.5337H20.5217H20.4467V14.6087V15.6522C20.4467 15.8988 20.247 16.0989 19.9999 16.0989C19.7529 16.0989 19.5532 15.8988 19.5532 15.6522V14.6087ZM18.6403 3.57715C18.3339 3.57715 18.0988 3.85314 18.0988 4.17389V13.0435C18.0988 13.3642 18.3339 13.6402 18.6403 13.6402H21.3591C21.6659 13.6402 21.901 13.3643 21.901 13.0435V4.17389C21.901 3.85302 21.6653 3.57715 21.3591 3.57715H18.6403Z" fill="#8F92A1" stroke="#8F92A1" stroke-width="0.15"/>
</svg>
