<svg width="442" height="69" viewBox="0 0 442 69" fill="none" xmlns="http://www.w3.org/2000/svg">
<g opacity="0.6">
<path d="M188.396 38.436C192.343 40.5809 195 44.794 195 49.6199C195 56.5906 189.307 62.2592 182.399 62.2592C177.01 62.2592 172.455 58.8887 170.634 54.1394L188.396 38.436Z" fill="#80BF54"/>
<path d="M168.888 54.1393C179.872 54.1393 188.776 45.1538 188.776 34.0696C188.776 22.9855 179.872 14 168.888 14C157.904 14 149 22.9855 149 34.0696C149 45.1538 157.904 54.1393 168.888 54.1393Z" fill="#A6D288"/>
<path d="M168.888 69.0001C168.66 69.0001 168.432 68.7703 168.432 68.5405V34.0697C168.432 33.8399 168.66 33.6101 168.888 33.6101C169.116 33.6101 169.343 33.8399 169.343 34.0697V68.5405C169.343 68.8469 169.191 69.0001 168.888 69.0001Z" fill="#E3F6FC"/>
<path d="M172.987 69H164.865C164.637 69 164.409 68.7702 164.409 68.5404C164.409 68.3106 164.637 68.0808 164.865 68.0808H172.987C173.215 68.0808 173.442 68.3106 173.442 68.5404C173.442 68.8468 173.215 69 172.987 69Z" fill="#80BF54"/>
<path d="M168.888 44.9472C168.736 44.9472 168.66 44.8706 168.584 44.794L163.043 39.2021C162.891 39.0489 162.891 38.7425 163.043 38.5893C163.195 38.4361 163.498 38.4361 163.65 38.5893L169.191 44.2578C169.343 44.411 169.343 44.7174 169.191 44.8706C169.191 44.9472 169.04 44.9472 168.888 44.9472Z" fill="#E3F6FC"/>
<path d="M168.888 50.2326C168.736 50.2326 168.66 50.156 168.584 50.0794L163.043 44.4875C162.891 44.3343 162.891 44.0279 163.043 43.8747C163.195 43.7215 163.498 43.7215 163.65 43.8747L169.191 49.4666C169.343 49.6198 169.343 49.9262 169.191 50.0794C169.191 50.156 169.04 50.2326 168.888 50.2326Z" fill="#E3F6FC"/>
<path d="M182.399 69.0002C182.172 69.0002 181.944 68.7704 181.944 68.5406V52.7606C181.944 52.5308 182.172 52.301 182.399 52.301C182.627 52.301 182.855 52.5308 182.855 52.7606V68.5406C182.855 68.847 182.627 69.0002 182.399 69.0002Z" fill="#E3F6FC"/>
<path d="M185.284 69H179.439C179.211 69 178.984 68.7702 178.984 68.5404C178.984 68.3106 179.211 68.0808 179.439 68.0808H185.284C185.512 68.0808 185.739 68.3106 185.739 68.5404C185.739 68.8468 185.587 69 185.284 69Z" fill="#80BF54"/>
<path d="M182.399 55.7479C182.248 55.7479 182.172 55.6713 182.096 55.5947C181.944 55.4415 181.944 55.1351 182.096 54.9819L186.119 50.922C186.271 50.7688 186.574 50.7688 186.726 50.922C186.878 51.0752 186.878 51.3816 186.726 51.5348L182.703 55.5947C182.627 55.6713 182.475 55.7479 182.399 55.7479Z" fill="#E3F6FC"/>
<path d="M182.399 59.5014C182.248 59.5014 182.172 59.4248 182.096 59.3482C181.944 59.195 181.944 58.8885 182.096 58.7353L186.119 54.6754C186.271 54.5222 186.574 54.5222 186.726 54.6754C186.878 54.8287 186.878 55.1351 186.726 55.2883L182.703 59.3482C182.627 59.5014 182.475 59.5014 182.399 59.5014Z" fill="#E3F6FC"/>
</g>
<g opacity="0.6">
<path d="M381.396 38.436C385.343 40.5809 388 44.794 388 49.6199C388 56.5906 382.307 62.2592 375.399 62.2592C370.01 62.2592 365.455 58.8887 363.634 54.1394L381.396 38.436Z" fill="#80BF54"/>
<path d="M361.888 54.1393C372.872 54.1393 381.776 45.1538 381.776 34.0696C381.776 22.9855 372.872 14 361.888 14C350.904 14 342 22.9855 342 34.0696C342 45.1538 350.904 54.1393 361.888 54.1393Z" fill="#A6D288"/>
<path d="M361.888 69.0001C361.66 69.0001 361.432 68.7703 361.432 68.5405V34.0697C361.432 33.8399 361.66 33.6101 361.888 33.6101C362.116 33.6101 362.343 33.8399 362.343 34.0697V68.5405C362.343 68.8469 362.191 69.0001 361.888 69.0001Z" fill="#E3F6FC"/>
<path d="M365.987 69H357.865C357.637 69 357.409 68.7702 357.409 68.5404C357.409 68.3106 357.637 68.0808 357.865 68.0808H365.987C366.215 68.0808 366.442 68.3106 366.442 68.5404C366.442 68.8468 366.215 69 365.987 69Z" fill="#80BF54"/>
<path d="M361.888 44.9472C361.736 44.9472 361.66 44.8706 361.584 44.794L356.043 39.2021C355.891 39.0489 355.891 38.7425 356.043 38.5893C356.195 38.4361 356.498 38.4361 356.65 38.5893L362.191 44.2578C362.343 44.411 362.343 44.7174 362.191 44.8706C362.191 44.9472 362.04 44.9472 361.888 44.9472Z" fill="#E3F6FC"/>
<path d="M361.888 50.2326C361.736 50.2326 361.66 50.156 361.584 50.0794L356.043 44.4875C355.891 44.3343 355.891 44.0279 356.043 43.8747C356.195 43.7215 356.498 43.7215 356.65 43.8747L362.191 49.4666C362.343 49.6198 362.343 49.9262 362.191 50.0794C362.191 50.156 362.04 50.2326 361.888 50.2326Z" fill="#E3F6FC"/>
<path d="M375.399 69.0002C375.172 69.0002 374.944 68.7704 374.944 68.5406V52.7606C374.944 52.5308 375.172 52.301 375.399 52.301C375.627 52.301 375.855 52.5308 375.855 52.7606V68.5406C375.855 68.847 375.627 69.0002 375.399 69.0002Z" fill="#E3F6FC"/>
<path d="M378.284 69H372.439C372.211 69 371.984 68.7702 371.984 68.5404C371.984 68.3106 372.211 68.0808 372.439 68.0808H378.284C378.512 68.0808 378.739 68.3106 378.739 68.5404C378.739 68.8468 378.587 69 378.284 69Z" fill="#80BF54"/>
<path d="M375.399 55.7479C375.248 55.7479 375.172 55.6713 375.096 55.5947C374.944 55.4415 374.944 55.1351 375.096 54.9819L379.119 50.922C379.271 50.7688 379.574 50.7688 379.726 50.922C379.878 51.0752 379.878 51.3816 379.726 51.5348L375.703 55.5947C375.627 55.6713 375.475 55.7479 375.399 55.7479Z" fill="#E3F6FC"/>
<path d="M375.399 59.5014C375.248 59.5014 375.172 59.4248 375.096 59.3482C374.944 59.195 374.944 58.8885 375.096 58.7353L379.119 54.6754C379.271 54.5222 379.574 54.5222 379.726 54.6754C379.878 54.8287 379.878 55.1351 379.726 55.2883L375.703 59.3482C375.627 59.5014 375.475 59.5014 375.399 59.5014Z" fill="#E3F6FC"/>
</g>
<g opacity="0.6">
<path d="M17 0L0 58.7072H34L17 0Z" fill="#A6D288"/>
<path d="M22.0904 68.9999H11.8136C11.5254 68.9999 11.2373 68.7139 11.2373 68.428C11.2373 68.1421 11.5254 67.8562 11.8136 67.8562H22.0904C22.3785 67.8562 22.6667 68.1421 22.6667 68.428C22.6667 68.7139 22.4746 68.9999 22.0904 68.9999Z" fill="#80BF54"/>
<path d="M17.0001 68.9999C16.712 68.9999 16.4238 68.714 16.4238 68.4281V24.2071C16.4238 23.9212 16.712 23.6353 17.0001 23.6353C17.2882 23.6353 17.5764 23.9212 17.5764 24.2071V68.3328C17.5764 68.714 17.2882 68.9999 17.0001 68.9999Z" fill="#E3F6FC"/>
<path d="M17.0001 40.9806C16.904 40.9806 16.712 40.9806 16.6159 40.8853C16.3278 40.6947 16.3278 40.3135 16.5199 40.1229L20.5538 35.1671C20.7458 34.8812 21.13 34.8812 21.3221 35.0718C21.6103 35.2624 21.6103 35.6436 21.4182 35.8342L17.3843 40.79C17.2882 40.9806 17.1922 40.9806 17.0001 40.9806Z" fill="#E3F6FC"/>
<path d="M17.0001 44.2209C16.904 44.2209 16.712 44.2209 16.6159 44.1256C16.3278 43.935 16.3278 43.5538 16.5199 43.3631L20.5538 38.4073C20.7458 38.1214 21.13 38.1214 21.3221 38.312C21.6103 38.5026 21.6103 38.8839 21.4182 39.0745L17.3843 44.0303C17.2882 44.2209 17.1922 44.2209 17.0001 44.2209Z" fill="#E3F6FC"/>
<path d="M17.0001 50.7968C16.904 50.7968 16.712 50.7968 16.6159 50.7015C16.3278 50.5109 16.3278 50.1297 16.5199 49.9391L20.5538 44.9833C20.7458 44.6974 21.13 44.6974 21.3221 44.888C21.6103 45.0786 21.6103 45.4598 21.4182 45.6504L17.3843 50.6062C17.2882 50.7015 17.1922 50.7968 17.0001 50.7968Z" fill="#E3F6FC"/>
<path d="M17.0001 54.0373C16.904 54.0373 16.712 54.0373 16.6159 53.942C16.3278 53.7514 16.3278 53.3702 16.5199 53.1795L20.5538 48.2238C20.7458 47.9378 21.13 47.9378 21.3221 48.1284C21.6103 48.3191 21.6103 48.7003 21.4182 48.8909L17.3843 53.8467C17.2882 53.942 17.1922 54.0373 17.0001 54.0373Z" fill="#E3F6FC"/>
<path d="M17.0001 40.9806C16.808 40.9806 16.7119 40.8853 16.5198 40.79L12.4859 35.8342C12.2938 35.5483 12.2938 35.2624 12.582 35.0718C12.8701 34.8812 13.1582 34.8812 13.3503 35.1671L17.3842 40.1229C17.5763 40.4088 17.5763 40.6947 17.2882 40.8853C17.2882 40.9806 17.0961 40.9806 17.0001 40.9806Z" fill="#E3F6FC"/>
<path d="M17.0001 44.2208C16.808 44.2208 16.7119 44.1255 16.5198 44.0302L12.4859 39.1697C12.2938 38.8838 12.2938 38.5979 12.582 38.4073C12.8701 38.2166 13.1582 38.2166 13.3503 38.5026L17.3842 43.4584C17.5763 43.7443 17.5763 44.0302 17.2882 44.2208C17.2882 44.2208 17.0961 44.2208 17.0001 44.2208Z" fill="#E3F6FC"/>
<path d="M17.0001 50.7968C16.808 50.7968 16.7119 50.7015 16.5198 50.6062L12.4859 45.6504C12.2938 45.3645 12.2938 45.0786 12.582 44.888C12.8701 44.6974 13.1582 44.6974 13.3503 44.9833L17.3842 49.9391C17.5763 50.225 17.5763 50.5109 17.2882 50.7015C17.2882 50.7015 17.0961 50.7968 17.0001 50.7968Z" fill="#E3F6FC"/>
<path d="M17.0001 54.0373C16.808 54.0373 16.7119 53.942 16.5198 53.8467L12.4859 48.8909C12.2938 48.605 12.2938 48.3191 12.582 48.1284C12.8701 47.9378 13.1582 47.9378 13.3503 48.2238L17.3842 53.1795C17.5763 53.4655 17.5763 53.7514 17.2882 53.942C17.2882 54.0373 17.0961 54.0373 17.0001 54.0373Z" fill="#E3F6FC"/>
</g>
<g opacity="0.6">
<path d="M318.61 39.585C317.551 36.3538 314.539 34.2925 311.305 34.2925C310.301 31.2284 307.402 29 304 29C300.599 29 297.699 31.2284 296.695 34.2925C293.461 34.2925 290.45 36.3538 289.391 39.585C288.331 42.8162 289.558 46.2702 292.179 48.1643C291.175 51.2284 292.179 54.7382 294.967 56.7437C297.755 58.7493 301.38 58.6379 304 56.7437C306.621 58.6379 310.246 58.7493 313.034 56.7437C315.822 54.7382 316.826 51.2284 315.822 48.1643C318.443 46.2702 319.669 42.8719 318.61 39.585Z" fill="#A6D288"/>
<path d="M304 68.9999C303.833 68.9999 303.665 68.8328 303.665 68.6656V43.596C303.665 43.4288 303.833 43.2617 304 43.2617C304.167 43.2617 304.335 43.4288 304.335 43.596V68.6656C304.335 68.8885 304.167 68.9999 304 68.9999Z" fill="#E3F6FC"/>
<path d="M306.955 68.9998H300.989C300.822 68.9998 300.654 68.8327 300.654 68.6656C300.654 68.4984 300.822 68.3313 300.989 68.3313H306.955C307.123 68.3313 307.29 68.4984 307.29 68.6656C307.29 68.8884 307.178 68.9998 306.955 68.9998Z" fill="#80BF54"/>
<path d="M304 51.5068C303.888 51.5068 303.833 51.4511 303.777 51.3954L299.706 47.3286C299.595 47.2171 299.595 46.9943 299.706 46.8829C299.818 46.7715 300.041 46.7715 300.152 46.8829L304.223 50.9497C304.335 51.0612 304.335 51.284 304.223 51.3954C304.167 51.5068 304.056 51.5068 304 51.5068Z" fill="#E3F6FC"/>
<path d="M304 51.5068C303.889 51.5068 303.833 51.4511 303.777 51.3954C303.665 51.284 303.665 51.0612 303.777 50.9497L307.848 46.8829C307.959 46.7715 308.182 46.7715 308.294 46.8829C308.405 46.9943 308.405 47.2171 308.294 47.3286L304.223 51.3954C304.167 51.5068 304.056 51.5068 304 51.5068Z" fill="#E3F6FC"/>
</g>
<g opacity="0.6">
<path d="M130.61 39.585C129.551 36.3538 126.539 34.2925 123.305 34.2925C122.301 31.2284 119.402 29 116 29C112.599 29 109.699 31.2284 108.695 34.2925C105.461 34.2925 102.45 36.3538 101.391 39.585C100.331 42.8162 101.558 46.2702 104.179 48.1643C103.175 51.2284 104.179 54.7382 106.967 56.7437C109.755 58.7493 113.38 58.6379 116 56.7437C118.621 58.6379 122.246 58.7493 125.034 56.7437C127.822 54.7382 128.826 51.2284 127.822 48.1643C130.443 46.2702 131.669 42.8719 130.61 39.585Z" fill="#A6D288"/>
<path d="M116 68.9999C115.833 68.9999 115.665 68.8328 115.665 68.6656V43.596C115.665 43.4288 115.833 43.2617 116 43.2617C116.167 43.2617 116.335 43.4288 116.335 43.596V68.6656C116.335 68.8885 116.167 68.9999 116 68.9999Z" fill="#E3F6FC"/>
<path d="M118.955 68.9998H112.989C112.822 68.9998 112.654 68.8327 112.654 68.6656C112.654 68.4984 112.822 68.3313 112.989 68.3313H118.955C119.123 68.3313 119.29 68.4984 119.29 68.6656C119.29 68.8884 119.178 68.9998 118.955 68.9998Z" fill="#80BF54"/>
<path d="M116 51.5068C115.888 51.5068 115.833 51.4511 115.777 51.3954L111.706 47.3286C111.595 47.2171 111.595 46.9943 111.706 46.8829C111.818 46.7715 112.041 46.7715 112.152 46.8829L116.223 50.9497C116.335 51.0612 116.335 51.284 116.223 51.3954C116.167 51.5068 116.056 51.5068 116 51.5068Z" fill="#E3F6FC"/>
<path d="M116 51.5068C115.889 51.5068 115.833 51.4511 115.777 51.3954C115.665 51.284 115.665 51.0612 115.777 50.9497L119.848 46.8829C119.959 46.7715 120.182 46.7715 120.294 46.8829C120.405 46.9943 120.405 47.2171 120.294 47.3286L116.223 51.3954C116.167 51.5068 116.056 51.5068 116 51.5068Z" fill="#E3F6FC"/>
</g>
<g opacity="0.6">
<path d="M248.89 69.0001H241.584C241.381 69.0001 241.178 68.7954 241.178 68.5906C241.178 68.3859 241.381 68.1812 241.584 68.1812H248.822C249.025 68.1812 249.228 68.3859 249.228 68.5906C249.296 68.8636 249.093 69.0001 248.89 69.0001Z" fill="#80BF54"/>
<path d="M245.237 69C245.034 69 244.831 68.7953 244.831 68.5905V58.6268C244.831 58.422 245.034 58.2173 245.237 58.2173C245.44 58.2173 245.643 58.422 245.643 58.6268V68.5905C245.643 68.8635 245.44 69 245.237 69Z" fill="#E3F6FC"/>
<path d="M245.237 58.6267C253.943 58.6267 261 49.9799 261 39.3134C261 28.6469 253.943 20 245.237 20C236.531 20 229.474 28.6469 229.474 39.3134C229.474 49.9799 236.531 58.6267 245.237 58.6267Z" fill="#A6D288"/>
<path d="M236.104 61.6296C240.027 61.6296 243.207 58.4214 243.207 54.4638C243.207 50.5063 240.027 47.2981 236.104 47.2981C232.18 47.2981 229 50.5063 229 54.4638C229 58.4214 232.18 61.6296 236.104 61.6296Z" fill="#80BF54"/>
<path d="M251.123 28.1894C249.973 28.1894 249.025 27.234 249.025 26.0739C249.025 24.9137 249.973 23.9583 251.123 23.9583C252.273 23.9583 253.22 24.9137 253.22 26.0739C253.22 27.234 252.273 28.1894 251.123 28.1894ZM251.123 24.7089C250.378 24.7089 249.837 25.3232 249.837 26.0056C249.837 26.6881 250.446 27.3023 251.123 27.3023C251.867 27.3023 252.408 26.6881 252.408 26.0056C252.408 25.3232 251.799 24.7089 251.123 24.7089Z" fill="#E3F6FC"/>
<path d="M238.201 32.0112C237.051 32.0112 236.104 31.0558 236.104 29.8956C236.104 28.7355 237.051 27.78 238.201 27.78C239.351 27.78 240.298 28.7355 240.298 29.8956C240.298 31.0558 239.351 32.0112 238.201 32.0112ZM238.201 28.599C237.457 28.599 236.915 29.2132 236.915 29.8956C236.915 30.5781 237.524 31.1923 238.201 31.1923C238.877 31.1923 239.486 30.5781 239.486 29.8956C239.486 29.2132 238.945 28.599 238.201 28.599Z" fill="#E3F6FC"/>
<path d="M242.125 45.2507C240.975 45.2507 240.027 44.2953 240.027 43.1351C240.027 41.975 240.975 41.0195 242.125 41.0195C243.275 41.0195 244.222 41.975 244.222 43.1351C244.29 44.2953 243.342 45.2507 242.125 45.2507ZM242.125 41.7702C241.381 41.7702 240.839 42.3844 240.839 43.0669C240.839 43.7493 241.448 44.3635 242.125 44.3635C242.869 44.3635 243.41 43.7493 243.41 43.0669C243.41 42.3844 242.869 41.7702 242.125 41.7702Z" fill="#E3F6FC"/>
<path d="M238.742 53.9861C237.592 53.9861 236.645 53.0306 236.645 51.8705C236.645 50.7103 237.592 49.7549 238.742 49.7549C239.892 49.7549 240.839 50.7103 240.839 51.8705C240.839 53.0306 239.892 53.9861 238.742 53.9861ZM238.742 50.5056C237.998 50.5056 237.457 51.1198 237.457 51.8022C237.457 52.4847 238.065 53.0989 238.742 53.0989C239.419 53.0989 240.027 52.4847 240.027 51.8022C240.027 51.1198 239.419 50.5056 238.742 50.5056Z" fill="#E3F6FC"/>
<path d="M233.871 59.3091C232.721 59.3091 231.774 58.3536 231.774 57.1935C231.774 56.0333 232.721 55.0779 233.871 55.0779C235.021 55.0779 235.968 56.0333 235.968 57.1935C235.968 58.3536 235.021 59.3091 233.871 59.3091ZM233.871 55.8286C233.127 55.8286 232.586 56.4428 232.586 57.1252C232.586 57.8077 233.195 58.4219 233.871 58.4219C234.548 58.4219 235.156 57.8077 235.156 57.1252C235.156 56.4428 234.548 55.8286 233.871 55.8286Z" fill="#E3F6FC"/>
<path d="M250.581 55.0098C249.431 55.0098 248.484 54.0543 248.484 52.8942C248.484 51.734 249.431 50.7786 250.581 50.7786C251.731 50.7786 252.679 51.734 252.679 52.8942C252.679 54.0543 251.731 55.0098 250.581 55.0098ZM250.581 51.5975C249.837 51.5975 249.296 52.2117 249.296 52.8942C249.296 53.5766 249.905 54.1908 250.581 54.1908C251.326 54.1908 251.867 53.5766 251.867 52.8942C251.867 52.2117 251.326 51.5975 250.581 51.5975Z" fill="#E3F6FC"/>
<path d="M248.281 36.3789C247.131 36.3789 246.184 35.4235 246.184 34.2633C246.184 33.1031 247.131 32.1477 248.281 32.1477C249.431 32.1477 250.378 33.1031 250.378 34.2633C250.378 35.4235 249.431 36.3789 248.281 36.3789ZM248.281 32.9666C247.537 32.9666 246.996 33.5809 246.996 34.2633C246.996 34.9458 247.605 35.56 248.281 35.56C248.958 35.56 249.567 34.9458 249.567 34.2633C249.567 33.5809 249.025 32.9666 248.281 32.9666Z" fill="#E3F6FC"/>
<path d="M254.302 44.6365C253.152 44.6365 252.205 43.681 252.205 42.5209C252.205 41.3607 253.152 40.4053 254.302 40.4053C255.452 40.4053 256.4 41.3607 256.4 42.5209C256.4 43.681 255.452 44.6365 254.302 44.6365ZM254.302 41.2242C253.558 41.2242 253.017 41.8384 253.017 42.5209C253.017 43.2716 253.626 43.8175 254.302 43.8175C254.979 43.8175 255.588 43.2033 255.588 42.5209C255.588 41.7702 254.979 41.2242 254.302 41.2242Z" fill="#E3F6FC"/>
<path d="M233.262 43.4763C232.112 43.4763 231.165 42.5209 231.165 41.3607C231.165 40.2005 232.112 39.2451 233.262 39.2451C234.412 39.2451 235.359 40.2005 235.359 41.3607C235.359 42.5209 234.48 43.4763 233.262 43.4763ZM233.262 40.0641C232.518 40.0641 231.977 40.6783 231.977 41.3607C231.977 42.1114 232.586 42.6574 233.262 42.6574C233.939 42.6574 234.548 42.0432 234.548 41.3607C234.615 40.61 234.006 40.0641 233.262 40.0641Z" fill="#E3F6FC"/>
</g>
<g opacity="0.6">
<path d="M72.89 69.0001H65.5834C65.3805 69.0001 65.1775 68.7954 65.1775 68.5906C65.1775 68.3859 65.3805 68.1812 65.5834 68.1812H72.8223C73.0253 68.1812 73.2282 68.3859 73.2282 68.5906C73.2959 68.8636 73.0929 69.0001 72.89 69.0001Z" fill="#80BF54"/>
<path d="M69.2367 69C69.0338 69 68.8308 68.7953 68.8308 68.5905V58.6268C68.8308 58.422 69.0338 58.2173 69.2367 58.2173C69.4397 58.2173 69.6426 58.422 69.6426 58.6268V68.5905C69.6426 68.8635 69.4397 69 69.2367 69Z" fill="#E3F6FC"/>
<path d="M69.2368 58.6267C77.9426 58.6267 85.0001 49.9799 85.0001 39.3134C85.0001 28.6469 77.9426 20 69.2368 20C60.5311 20 53.4736 28.6469 53.4736 39.3134C53.4736 49.9799 60.5311 58.6267 69.2368 58.6267Z" fill="#A6D288"/>
<path d="M60.1036 61.6296C64.0268 61.6296 67.2072 58.4214 67.2072 54.4638C67.2072 50.5063 64.0268 47.2981 60.1036 47.2981C56.1804 47.2981 53 50.5063 53 54.4638C53 58.4214 56.1804 61.6296 60.1036 61.6296Z" fill="#80BF54"/>
<path d="M75.1226 28.1894C73.9725 28.1894 73.0254 27.234 73.0254 26.0739C73.0254 24.9137 73.9725 23.9583 75.1226 23.9583C76.2727 23.9583 77.2199 24.9137 77.2199 26.0739C77.2199 27.234 76.2727 28.1894 75.1226 28.1894ZM75.1226 24.7089C74.3785 24.7089 73.8372 25.3232 73.8372 26.0056C73.8372 26.6881 74.4461 27.3023 75.1226 27.3023C75.8668 27.3023 76.4081 26.6881 76.4081 26.0056C76.4081 25.3232 75.7992 24.7089 75.1226 24.7089Z" fill="#E3F6FC"/>
<path d="M62.2008 32.0112C61.0507 32.0112 60.1035 31.0558 60.1035 29.8956C60.1035 28.7355 61.0507 27.78 62.2008 27.78C63.3509 27.78 64.298 28.7355 64.298 29.8956C64.298 31.0558 63.3509 32.0112 62.2008 32.0112ZM62.2008 28.599C61.4566 28.599 60.9154 29.2132 60.9154 29.8956C60.9154 30.5781 61.5242 31.1923 62.2008 31.1923C62.8773 31.1923 63.4862 30.5781 63.4862 29.8956C63.4862 29.2132 62.945 28.599 62.2008 28.599Z" fill="#E3F6FC"/>
<path d="M66.1248 45.2507C64.9747 45.2507 64.0276 44.2953 64.0276 43.1351C64.0276 41.975 64.9747 41.0195 66.1248 41.0195C67.2749 41.0195 68.2221 41.975 68.2221 43.1351C68.2897 44.2953 67.3426 45.2507 66.1248 45.2507ZM66.1248 41.7702C65.3807 41.7702 64.8394 42.3844 64.8394 43.0669C64.8394 43.7493 65.4483 44.3635 66.1248 44.3635C66.869 44.3635 67.4103 43.7493 67.4103 43.0669C67.4103 42.3844 66.869 41.7702 66.1248 41.7702Z" fill="#E3F6FC"/>
<path d="M62.5237 53.6875C61.4791 53.6875 60.6189 52.8231 60.6189 51.7734C60.6189 50.7238 61.4791 49.8594 62.5237 49.8594C63.5682 49.8594 64.4284 50.7238 64.4284 51.7734C64.4284 52.8231 63.5682 53.6875 62.5237 53.6875ZM62.5237 50.5386C61.8478 50.5386 61.3562 51.0943 61.3562 51.7117C61.3562 52.3291 61.9092 52.8848 62.5237 52.8848C63.1381 52.8848 63.6911 52.3291 63.6911 51.7117C63.6911 51.0943 63.1381 50.5386 62.5237 50.5386Z" fill="#E3F6FC"/>
<path d="M57.9524 59.0469C56.9078 59.0469 56.0476 58.0096 56.0476 56.75C56.0476 55.4904 56.9078 54.4531 57.9524 54.4531C58.9969 54.4531 59.8571 55.4904 59.8571 56.75C59.8571 58.0096 58.9969 59.0469 57.9524 59.0469ZM57.9524 55.2681C57.2765 55.2681 56.7849 55.935 56.7849 56.6759C56.7849 57.4168 57.3379 58.0837 57.9524 58.0837C58.5668 58.0837 59.1198 57.4168 59.1198 56.6759C59.1198 55.935 58.5668 55.2681 57.9524 55.2681Z" fill="#E3F6FC"/>
<path d="M74.5814 55.0098C73.4313 55.0098 72.4841 54.0543 72.4841 52.8942C72.4841 51.734 73.4313 50.7786 74.5814 50.7786C75.7315 50.7786 76.6786 51.734 76.6786 52.8942C76.6786 54.0543 75.7315 55.0098 74.5814 55.0098ZM74.5814 51.5975C73.8372 51.5975 73.296 52.2117 73.296 52.8942C73.296 53.5766 73.9049 54.1908 74.5814 54.1908C75.3256 54.1908 75.8668 53.5766 75.8668 52.8942C75.8668 52.2117 75.3256 51.5975 74.5814 51.5975Z" fill="#E3F6FC"/>
<path d="M72.2811 36.3789C71.131 36.3789 70.1838 35.4235 70.1838 34.2633C70.1838 33.1031 71.131 32.1477 72.2811 32.1477C73.4312 32.1477 74.3783 33.1031 74.3783 34.2633C74.3783 35.4235 73.4312 36.3789 72.2811 36.3789ZM72.2811 32.9666C71.5369 32.9666 70.9957 33.5809 70.9957 34.2633C70.9957 34.9458 71.6046 35.56 72.2811 35.56C72.9576 35.56 73.5665 34.9458 73.5665 34.2633C73.5665 33.5809 73.0253 32.9666 72.2811 32.9666Z" fill="#E3F6FC"/>
<path d="M78.3023 44.6365C77.1522 44.6365 76.2051 43.681 76.2051 42.5209C76.2051 41.3607 77.1522 40.4053 78.3023 40.4053C79.4524 40.4053 80.3996 41.3607 80.3996 42.5209C80.3996 43.681 79.4524 44.6365 78.3023 44.6365ZM78.3023 41.2242C77.5581 41.2242 77.0169 41.8384 77.0169 42.5209C77.0169 43.2716 77.6258 43.8175 78.3023 43.8175C78.9789 43.8175 79.5877 43.2033 79.5877 42.5209C79.5877 41.7702 78.9789 41.2242 78.3023 41.2242Z" fill="#E3F6FC"/>
<path d="M57.1904 43.7344C56.1459 43.7344 55.2856 42.87 55.2856 41.8203C55.2856 40.7707 56.1459 39.9062 57.1904 39.9062C58.235 39.9062 59.0952 40.7707 59.0952 41.8203C59.0952 42.87 58.2964 43.7344 57.1904 43.7344ZM57.1904 40.6472C56.5145 40.6472 56.023 41.2029 56.023 41.8203C56.023 42.4995 56.576 42.9934 57.1904 42.9934C57.8048 42.9934 58.3578 42.4378 58.3578 41.8203C58.4193 41.1411 57.8663 40.6472 57.1904 40.6472Z" fill="#E3F6FC"/>
</g>
<g opacity="0.6">
<path d="M441.237 50.3813C441.237 43.9309 429.657 13 429.657 13C429.657 13 418 43.9309 418 50.3813C418 56.8318 423.207 62.0387 429.657 62.0387C436.108 62.0387 441.237 56.754 441.237 50.3813Z" fill="#A6D288"/>
<path d="M433.776 68.8H425.461C425.228 68.8 424.994 68.5669 424.994 68.3337C424.994 68.1006 425.228 67.8674 425.461 67.8674H433.776C434.009 67.8674 434.243 68.1006 434.243 68.3337C434.243 68.6446 434.087 68.8 433.776 68.8Z" fill="#80BF54"/>
<path d="M429.657 68.8C429.424 68.8 429.191 68.5668 429.191 68.3337V30.4861C429.191 30.2529 429.424 30.0198 429.657 30.0198C429.89 30.0198 430.124 30.2529 430.124 30.4861V68.4114C430.124 68.6446 429.89 68.8 429.657 68.8Z" fill="#E3F6FC"/>
<path d="M429.502 41.2886C429.346 41.2886 429.269 41.2109 429.191 41.1332L425.228 37.1697C425.072 37.0143 425.072 36.7034 425.228 36.548C425.383 36.3925 425.694 36.3925 425.849 36.548L429.813 40.5115C429.968 40.6669 429.968 40.9778 429.813 41.1332C429.735 41.2886 429.58 41.2886 429.502 41.2886Z" fill="#E3F6FC"/>
<path d="M429.502 44.9412C429.346 44.9412 429.269 44.8635 429.191 44.7858L425.228 40.8223C424.994 40.6669 424.994 40.356 425.15 40.2006C425.305 40.0451 425.616 40.0451 425.772 40.2006L429.735 44.1641C429.89 44.3195 429.89 44.6304 429.735 44.7858C429.735 44.9412 429.58 44.9412 429.502 44.9412Z" fill="#E3F6FC"/>
<path d="M429.813 51.0031C429.657 51.0031 429.58 50.9253 429.502 50.8476C429.347 50.6922 429.347 50.3813 429.502 50.2259L434.243 45.4852C434.398 45.3298 434.709 45.3298 434.864 45.4852C435.02 45.6407 435.02 45.9515 434.864 46.107L430.124 50.8476C430.046 50.9253 429.891 51.0031 429.813 51.0031Z" fill="#E3F6FC"/>
<path d="M429.813 54.6556C429.657 54.6556 429.58 54.5779 429.502 54.5002C429.347 54.3448 429.347 54.0339 429.502 53.8785L434.243 49.1378C434.398 48.9824 434.709 48.9824 434.864 49.1378C435.02 49.2932 435.02 49.6041 434.864 49.7595L430.124 54.5002C430.046 54.5779 429.891 54.6556 429.813 54.6556Z" fill="#E3F6FC"/>
</g>
</svg>
